# xmcd
#
# Track frame offsets:
#	150
#	10512
#	22469
#	36492
#	52791
#	68744
#	83567
#	94860
#	109442
#	123963
#	137377
#	150611
#
# Disc length: 2185 seconds
# Revision: 0
# Processed by: cddbd v1.5.2PL0 Copyright (c) Steve Scherf et al.
# Submitted via: dBpowerAMP V12.0
#
DISCID=9308870c
DTITLE=Various Artist - Bluegrass Number One Hits
DYEAR=2010
DGENRE=Bluegrass
TTITLE0=Dailey and Vincent - Sweet Carrie
TTITLE1=The Grascals - Long List of Heartaches
TTITLE2=Blue Highway - Through the Window of a Train
TTITLE3=J.D. Crowe and the New South - Lefty's Old Guitar
TTITLE4=Rhonda Vincent - Kentucky Borderline
TTITLE5=Doyle Lawson and Quicksilver - Sadie's Got Her New Dress On
TTITLE6=Alison Krauss and Union Station - Rain Please Go Away
TTITLE7=Claire Lynch - Train Long Gone
TTITLE8=The Grascals - Me and John and Paul
TTITLE9=Charlie Sizemore - Alison's Band
TTITLE10=Dan Tyminski - Wheels
TTITLE11=Dailey and Vincent - Head Hung Down
EXTD=
EXTT0=
EXTT1=
EXTT2=
EXTT3=
EXTT4=
EXTT5=
EXTT6=
EXTT7=
EXTT8=
EXTT9=
EXTT10=
EXTT11=
PLAYORDER=
